<?xml version="1.0" standalone="no"?>
<!DOCTYPE svg PUBLIC "-//W3C//DTD SVG 20010904//EN"
 "http://www.w3.org/TR/2001/REC-SVG-20010904/DTD/svg10.dtd">
<svg version="1.0" xmlns="http://www.w3.org/2000/svg"
 width="200.000000pt" height="200.000000pt" viewBox="0 0 200.000000 200.000000"
 preserveAspectRatio="xMidYMid meet">

<g transform="translate(0.000000,200.000000) scale(0.100000,-0.100000)"
fill="#000000" stroke="none">
<path d="M435 1655 c-50 -18 -100 -71 -114 -122 -14 -50 -14 -387 0 -438 14
-51 73 -110 124 -124 22 -6 120 -11 220 -11 l181 0 62 -63 62 -63 0 -169 c0
-94 5 -188 11 -210 14 -51 73 -110 124 -124 52 -14 398 -14 450 0 51 14 110
73 124 124 14 52 14 388 0 440 -15 52 -74 110 -127 124 -25 7 -121 11 -243 11
l-202 -2 -38 38 -39 38 0 203 c0 217 -6 250 -53 302 -49 53 -85 61 -302 60
-146 0 -211 -4 -240 -14z"/>
</g>
</svg>
